<svg width="900" height="900" viewBox="0 0 900 900" fill="none" xmlns="http://www.w3.org/2000/svg">
<path fill-rule="evenodd" clip-rule="evenodd" d="M627.377 613.888C394.377 1049.39 -134.623 705.888 193.377 374.388C591.377 -300.112 1083.88 360.888 627.377 613.888ZM591.377 573.888C569.544 579.888 511.477 590.088 453.877 582.888L559.771 466.888L574.377 450.888C642.314 406.251 671.801 359.626 676.456 319.887C689.583 207.834 505.281 150.526 428.877 346.888H300.877H274.377C377.87 187.402 486.409 126.869 574.377 126.317C766.057 125.115 860.067 408.699 591.377 573.888ZM403.877 399.388L321.377 484.888C191.92 500.061 210.042 626.753 278.572 670.888C316.18 695.109 368.968 694.467 420.877 636.888H442.377H551.877C411.354 838.95 206.635 775.171 150.037 646.888C117.422 572.965 133.992 477.623 240.377 399.388C253.326 395.688 285.607 390.962 332.877 392.687C353.747 393.449 377.538 395.468 403.877 399.388Z" fill="#1E1E1E"/>
<path d="M453.877 582.888C511.477 590.088 569.544 579.888 591.377 573.888C860.067 408.699 766.057 125.115 574.377 126.317C579.246 130.841 586.062 140.588 574.377 143.388C502.377 143.388 442.077 170.488 300.877 346.888H428.877C505.281 150.526 689.583 207.834 676.456 319.887C684.119 316.687 688.93 321.221 690.377 323.887C660.777 440.287 590.973 467.721 559.771 466.888L453.877 582.888Z" fill="#F5D061"/>
<path d="M321.377 484.888L403.877 399.388C377.538 395.468 353.747 393.449 332.877 392.687C339.044 396.421 346.477 405.688 326.877 412.888C266.877 404.388 131.377 456.388 158.377 621.888C158.65 629.888 157.363 646.088 150.037 646.888C206.635 775.171 411.354 838.95 551.877 636.888H442.377C364.777 731.288 296.711 706.221 272.377 681.888L278.572 670.888C210.042 626.753 191.92 500.061 321.377 484.888Z" fill="#F5D061"/>
<path d="M420.877 636.888C368.968 694.467 316.18 695.109 278.572 670.888L272.377 681.888C296.711 706.221 364.777 731.288 442.377 636.888H420.877Z" fill="white"/>
<path d="M574.377 450.888L559.771 466.888C590.973 467.721 660.777 440.287 690.377 323.887C688.93 321.221 684.119 316.687 676.456 319.887C671.801 359.626 642.314 406.251 574.377 450.888Z" fill="white"/>
<path d="M332.877 392.687C285.607 390.962 253.326 395.688 240.377 399.388C133.992 477.623 117.422 572.965 150.037 646.888C157.363 646.088 158.65 629.888 158.377 621.888C131.377 456.388 266.877 404.388 326.877 412.888C346.477 405.688 339.044 396.421 332.877 392.687Z" fill="white"/>
<path d="M574.377 126.317C486.409 126.869 377.87 187.402 274.377 346.888H300.877C442.077 170.488 502.377 143.388 574.377 143.388C586.062 140.588 579.246 130.841 574.377 126.317Z" fill="white"/>
<path d="M464.439 236.289L457.528 233.416L453.118 239.463L442.788 253.624L441.797 254.982L441.505 254.636L434.376 264.409L422.657 280.474L418.054 286.785L423.356 292.521C440.011 310.54 446.351 324.027 448.925 338.427C450.966 349.838 450.73 361.791 450.415 377.779C450.31 383.111 450.196 388.891 450.155 395.249C449.932 396.181 449.72 397.105 449.517 398.024L448.884 397.571C434.012 386.935 414.682 382.807 394.912 383.545C375.059 384.286 354.024 389.94 334.956 399.756C296.963 419.313 264.902 456.613 268.105 506.908L268.227 508.815L267.484 510.1C264.093 515.967 264.564 523.101 265.241 527.614C265.998 532.666 267.522 537.478 268.747 540.519L269.927 543.451L269.578 553.233C269.443 557.033 270.195 565.473 274.147 573.43L275.945 577.049L279.799 578.264C281.265 578.726 282.687 579.233 284.101 579.781L290.729 595.139C306.077 630.697 333.671 647.78 361.698 653.247C389.223 658.616 417.367 652.869 435.457 642.838L435.637 642.738L435.814 642.63C484.661 612.694 505.438 581.289 513.306 547.337C517.156 530.724 517.814 513.931 517.606 497.239C517.516 489.972 517.277 482.995 517.038 476.036C516.708 466.392 516.379 456.781 516.448 446.479C516.452 445.903 516.457 445.33 516.462 444.76L522.083 440.882C536.656 430.829 554.809 426.87 572.207 426.301C589.575 425.734 605.295 428.579 614.141 431.248L629.787 435.97L626.629 422.149C626.982 421.609 627.487 420.916 628.165 420.087C630.242 417.546 632.989 414.876 634.862 413.236L640.126 408.626L640.317 408.751L640.588 408.221L644.37 404.91L642.798 403.903L645.117 399.372C646.182 397.291 647.922 394.173 649.614 391.647C650.056 390.987 650.448 390.437 650.783 389.996L664.703 388.327L654.52 375.09C640.227 356.511 595.617 335.456 521.407 362.604C522.601 346.131 522.68 332.062 518.637 316.748C509.928 283.762 497.816 250.161 464.439 236.289ZM381.923 581.514C391.826 576.488 402.647 569.824 414.591 561.198C421.79 556.51 427.293 550.081 432.646 543.299C434.045 541.525 435.446 539.712 436.887 537.847C439.049 535.048 441.301 532.133 443.774 529.061C441.314 537.312 437.766 545 433.202 551.792C422.225 568.127 405.143 579.695 381.923 581.514ZM349.524 476.086C358.667 464.032 375.739 454.143 408.353 458.594C402.327 466.582 396.862 473.782 391.608 480.421C379.229 496.065 369.797 506.219 360.509 512.36C353.963 516.688 347.162 519.243 338.659 519.782L338.623 519.422C337.354 506.855 339.638 489.119 349.524 476.086Z" fill="#F5D061" stroke="black" stroke-width="19"/>
</svg>
